<svg xmlns="http://www.w3.org/2000/svg" viewBox="0 0 900 900"><defs><style>.a{fill:#f4f4f4;}.b{fill:#9ca3a3;}</style></defs><rect class="a" width="900" height="900"/><path class="b" d="M207.74,535.28,174.38,434.6V535.28H159V398.79h15.35l32.74,97.61V398.79h15.35V535.28Z"/><path class="b" d="M279.73,396.54c25.79,0,35.61,31.72,35.61,70.59s-9.82,70.61-35.61,70.61c-26,0-35.6-31.72-35.6-70.61S253.74,396.54,279.73,396.54Zm0,13.91c-14.73,0-19.64,25.78-19.64,56.68,0,30.49,4.91,56.69,19.64,56.69,14.53,0,19.65-26.2,19.65-56.69C299.38,436.23,294.26,410.45,279.73,410.45Z"/><path class="b" d="M372.16,535.28V398.79h15.36V535.28Z"/><path class="b" d="M486.54,535.28v-107l-26,107h-6.14l-25.78-107v107H413.27V398.79h20.88l23.33,96.38,23.74-96.38h20.46V535.28Z"/><path class="b" d="M572.43,535.28,566.91,504H536.62l-5.52,31.3H516l26.81-136.49h17.81l27,136.49ZM551.77,414.75l-13.31,75.51h26.61Z"/><path class="b" d="M633.38,396.54c16,0,24.35,12.07,28.24,26.19l-12.69,4.91c-3.07-10.23-6.75-17.19-15.55-17.19-13.71,0-19.64,22.52-19.64,56.68,0,34,5.93,56.69,19.64,56.69a16.08,16.08,0,0,0,14.74-8.39V479.62H629.91V465.9H662v55.47c-6.95,10.85-16.57,16.37-28.65,16.37-24.76,0-35.6-28.85-35.6-70.61C597.78,425.18,608.62,396.54,633.38,396.54Z"/><path class="b" d="M685.93,535.28V398.79h50.76V412.5H701.28v46.05h34v13.71h-34v49.31h35.41v13.71Z"/></svg>